# File created by Blade
# Date/Time:  Tue Jan 27 19:00:36 2015
# Frame Rate: 120.000 fps
#------------------------------------------------------
:FULLY-SPECIFIED
:DEGREES
2532
root -0.367717 31.404410 -5.110759 3.473597 -40.489003 -5.061666
Spine 6.223106 0.272144 -3.521684
Head 26.841806 11.155169 -2.279095
LeftShoulder -20.455112 19.509842 10.905102
LeftArm -2.571047 -41.653341 -77.237351
LeftForeArm 3.773392 -0.000000 104.810857
LeftHand -14.933277 -0.000000 34.723277
LeftHandThumb1 -26.253704 0.000000 33.147579
RightShoulder -12.345130 -3.611069 -7.934510
RightArm 5.224900 -24.748883 81.702686
RightForeArm -26.227038 -0.000000 20.680933
RightHand -16.131440 -0.000000 5.044240
RightHandThumb1 -24.326973 -0.000000 -32.862282
LeftUpLeg -7.451916 22.240976 -10.892630
LeftLeg 14.112936 -0.000000 -0.000000
LeftFoot -38.001686 41.340951 -27.602467
LeftToeBase 9.694893 -0.000000 -0.000000
RightUpLeg -39.455726 -31.328878 -4.110965
RightLeg 1.379693 -0.000000 -0.000000
RightFoot -17.337764 -25.632221 12.906743
RightToeBase -3.543696 -0.000000 0.000000
2533
root -0.378419 31.406591 -5.101058 3.428703 -40.463253 -5.104830
Spine 6.303409 0.320960 -3.474047
Head 26.878121 11.128103 -2.177553
LeftShoulder -20.482317 19.562074 10.913908
LeftArm -2.507383 -41.512983 -77.224584
LeftForeArm 3.632825 -0.000000 104.764252
LeftHand -14.909832 0.000000 34.744403
LeftHandThumb1 -26.253704 0.000000 33.147579
RightShoulder -12.394473 -3.694725 -7.840616
RightArm 5.261789 -24.789724 81.627653
RightForeArm -26.250717 -0.000000 20.570930
RightHand -16.082952 0.000000 5.041500
RightHandThumb1 -24.326973 -0.000000 -32.862282
LeftUpLeg -7.290618 22.155596 -10.826795
LeftLeg 13.960476 -0.000000 -0.000000
LeftFoot -37.886895 41.571237 -27.424889
LeftToeBase 9.602288 -0.000000 -0.000000
RightUpLeg -39.669396 -31.645269 -3.990569
RightLeg 1.346192 -0.000000 -0.000000
RightFoot -17.160538 -25.332054 12.760873
RightToeBase -4.123474 -0.000000 0.000000
2534
root -0.389544 31.409263 -5.093944 3.406377 -40.402151 -5.154731
Spine 6.369530 0.339043 -3.436083
Head 26.910981 11.066465 -2.044389
LeftShoulder -20.509518 19.589108 10.938197
LeftArm -2.461381 -41.370787 -77.184300
LeftForeArm 3.526849 -0.000000 104.731191
LeftHand -14.953168 0.000000 34.682935
LeftHandThumb1 -26.253704 0.000000 33.147579
RightShoulder -12.440242 -3.754862 -7.749864
RightArm 5.290633 -24.838062 81.569537
RightForeArm -26.286651 -0.000000 20.421498
RightHand -15.967365 0.000000 5.114801
RightHandThumb1 -24.326973 -0.000000 -32.862282
LeftUpLeg -7.146233 21.993962 -10.755179
LeftLeg 13.812799 -0.000000 -0.000000
LeftFoot -37.827301 41.798580 -27.309200
LeftToeBase 9.584894 -0.000000 -0.000000
RightUpLeg -39.853609 -31.904693 -3.937756
RightLeg 1.336883 -0.000000 -0.000000
RightFoot -16.745805 -25.195882 12.302514
RightToeBase -4.764551 -0.000000 0.000000
2535
root -0.398549 31.412545 -5.089873 3.407612 -40.322688 -5.218216
Spine 6.425418 0.370407 -3.390751
Head 26.956030 10.976825 -1.887027
LeftShoulder -20.516026 19.669933 10.992485
LeftArm -2.366889 -41.165975 -77.208911
LeftForeArm 3.425382 -0.000000 104.673570
LeftHand -14.923231 -0.000000 34.663805
LeftHandThumb1 -26.253704 0.000000 33.147579
RightShoulder -12.510478 -3.814775 -7.662360
RightArm 5.393105 -25.040451 81.463200
RightForeArm -26.053728 -0.000000 20.179503
RightHand -15.974416 -0.000000 5.120316
RightHandThumb1 -24.326973 -0.000000 -32.862282
LeftUpLeg -7.032208 21.797507 -10.678452
LeftLeg 13.686331 -0.000000 -0.000000
LeftFoot -37.770500 42.032868 -27.203873
LeftToeBase 9.526216 -0.000000 -0.000000
RightUpLeg -39.961393 -32.037558 -3.992423
RightLeg 1.372565 -0.000000 -0.000000
RightFoot -16.799887 -24.875759 12.542459
RightToeBase -4.068546 -0.000000 0.000000
2536
root -0.410333 31.416584 -5.087083 3.431396 -40.215859 -5.295921
Spine 6.464186 0.354506 -3.347625
Head 27.011496 10.889017 -1.728789
LeftShoulder -20.573773 19.798874 11.013756
LeftArm -2.191597 -40.956252 -77.253108
LeftForeArm 3.312789 -0.000000 104.611360
LeftHand -14.924881 -0.000000 34.649697
LeftHandThumb1 -26.253704 0.000000 33.147579
RightShoulder -12.556043 -3.875028 -7.578937
RightArm 5.466713 -25.133998 81.399220
RightForeArm -25.952756 -0.000000 19.980842
RightHand -15.951740 -0.000000 5.126228
RightHandThumb1 -24.326973 -0.000000 -32.862282
LeftUpLeg -6.943242 21.597751 -10.584984
LeftLeg 13.592478 -0.000000 -0.000000
LeftFoot -37.707085 42.239158 -27.088233
LeftToeBase 9.528725 -0.000000 -0.000000
RightUpLeg -40.053942 -32.143523 -4.056263
RightLeg 1.399473 -0.000000 -0.000000
RightFoot -16.414224 -24.934340 12.122412
RightToeBase -4.411075 -0.000000 0.000000
2537
root -0.423677 31.421421 -5.087960 3.485921 -40.090023 -5.418098
Spine 6.504513 0.326826 -3.275370
Head 27.063944 10.790228 -1.548135
LeftShoulder -20.521524 19.797754 11.129027
LeftArm -2.290681 -40.808352 -77.174305
LeftForeArm 3.170440 -0.000000 104.574921
LeftHand -14.901329 -0.000000 34.596379
LeftHandThumb1 -26.253704 0.000000 33.147579
RightShoulder -12.563358 -3.900449 -7.509234
RightArm 5.493122 -25.175041 81.372144
RightForeArm -25.893057 0.000000 19.782213
RightHand -16.025873 -0.000000 5.060332
RightHandThumb1 -24.326973 -0.000000 -32.862282
LeftUpLeg -6.877227 21.406576 -10.452535
LeftLeg 13.540010 -0.000000 -0.000000
LeftFoot -37.634164 42.469413 -26.893060
LeftToeBase 9.652535 -0.000000 -0.000000
RightUpLeg -40.057179 -32.112195 -4.231740
RightLeg 1.497849 -0.000000 -0.000000
RightFoot -16.292219 -24.929663 12.107066
RightToeBase -3.808375 -0.000000 0.000000
2538
root -0.434033 31.426257 -5.087707 3.543521 -39.945269 -5.511020
Spine 6.525673 0.284788 -3.224410
Head 27.119494 10.660634 -1.382620
LeftShoulder -20.444865 19.810948 11.251449
LeftArm -2.384803 -40.698046 -77.126771
LeftForeArm 3.026882 -0.000000 104.545477
LeftHand -14.888652 0.000000 34.652002
LeftHandThumb1 -26.253704 0.000000 33.147579
RightShoulder -12.578533 -3.912027 -7.452303
RightArm 5.485804 -25.167814 81.365979
RightForeArm -25.923112 -0.000000 19.609149
RightHand -16.005835 -0.000000 5.121864
RightHandThumb1 -24.326973 -0.000000 -32.862282
LeftUpLeg -6.841501 21.182778 -10.353480
LeftLeg 13.504382 -0.000000 -0.000000
LeftFoot -37.605071 42.627976 -26.830735
LeftToeBase 9.636339 -0.000000 -0.000000
RightUpLeg -40.080512 -32.078009 -4.425366
RightLeg 1.701334 -0.000000 -0.000000
RightFoot -16.357115 -24.960119 12.276756
RightToeBase -3.696048 -0.000000 0.000000
2539
root -0.446210 31.432139 -5.090847 3.632752 -39.771184 -5.649420
Spine 6.553981 0.210408 -3.140360
Head 27.151811 10.529232 -1.237295
LeftShoulder -20.468760 19.899376 11.319602
LeftArm -2.265053 -40.565467 -77.222477
LeftForeArm 2.984721 -0.000000 104.502074
LeftHand -14.892303 -0.000000 34.650671
LeftHandThumb1 -26.253704 0.000000 33.147579
RightShoulder -12.602159 -3.927715 -7.399798
RightArm 5.511447 -25.132308 81.356990
RightForeArm -25.939128 -0.000000 19.439360
RightHand -15.951553 -0.000000 5.231893
RightHandThumb1 -24.326973 -0.000000 -32.862282
LeftUpLeg -6.836641 20.938471 -10.217790
LeftLeg 13.525061 -0.000000 -0.000000
LeftFoot -37.613700 42.760027 -26.799910
LeftToeBase 9.585199 -0.000000 -0.000000
RightUpLeg -40.047383 -31.988725 -4.648682
RightLeg 1.915803 -0.000000 -0.000000
RightFoot -16.194801 -25.096479 12.322340
RightToeBase -3.613313 -0.000000 0.000000
2540
root -0.457902 31.438117 -5.092927 3.722640 -39.582656 -5.767005
Spine 6.563138 0.140251 -3.070586
Head 27.176526 10.378950 -1.105483
LeftShoulder -20.432437 19.930994 11.414165
LeftArm -2.257287 -40.504495 -77.264000
LeftForeArm 2.931064 -0.000000 104.485928
LeftHand -14.908038 -0.000000 34.585868
LeftHandThumb1 -26.253704 0.000000 33.147579
RightShoulder -12.647199 -3.935402 -7.356876
RightArm 5.525693 -25.084194 81.364148
RightForeArm -26.000362 -0.000000 19.258870
RightHand -15.930339 -0.000000 5.334938
RightHandThumb1 -24.326973 -0.000000 -32.862282
LeftUpLeg -6.854312 20.834525 -10.095973
LeftLeg 13.564600 -0.000000 -0.000000
LeftFoot -37.584859 42.716856 -26.768956
LeftToeBase 9.500158 -0.000000 -0.000000
RightUpLeg -40.003032 -31.851774 -4.940807
RightLeg 2.227129 -0.000000 -0.000000
RightFoot -15.979705 -25.330496 12.217691
RightToeBase -3.508994 -0.000000 0.000000
2541
root -0.470239 31.444860 -5.098049 3.839983 -39.365376 -5.923836
Spine 6.582717 0.056386 -2.968311
Head 27.183171 10.215555 -0.965312
LeftShoulder -20.398155 19.935158 11.495894
LeftArm -2.257353 -40.452238 -77.294217
LeftForeArm 2.887434 0.000000 104.486765
LeftHand -14.930655 -0.000000 34.575079
LeftHandThumb1 -26.253704 0.000000 33.147579
RightShoulder -12.710561 -3.948849 -7.311821
RightArm 5.576066 -25.046032 81.353521
RightForeArm -25.956682 -0.000000 19.072920
RightHand -15.884269 -0.000000 5.370050
RightHandThumb1 -24.326973 -0.000000 -32.862282
LeftUpLeg -6.899752 20.645496 -9.944863
LeftLeg 13.653665 -0.000000 -0.000000
LeftFoot -37.599377 42.732452 -26.776283
LeftToeBase 9.465789 -0.000000 -0.000000
RightUpLeg -39.947701 -31.704141 -5.217557
RightLeg 2.626425 -0.000000 -0.000000
RightFoot -15.774550 -25.557326 12.193025
RightToeBase -3.303160 -0.000000 0.000000
2542
root -0.482106 31.451396 -5.105238 3.960118 -39.141846 -6.075120
Spine 6.603322 -0.026748 -2.871526
Head 27.176662 10.044346 -0.871086
LeftShoulder -20.355562 19.936648 11.564785
LeftArm -2.229616 -40.452557 -77.345947
LeftForeArm 2.880885 -0.000000 104.496483
LeftHand -14.968680 -0.000000 34.566322
LeftHandThumb1 -26.253704 0.000000 33.147579
RightShoulder -12.751808 -3.940226 -7.280697
RightArm 5.572071 -24.995057 81.368887
RightForeArm -25.947318 -0.000000 18.955116
RightHand -15.904000 0.000000 5.423956
RightHandThumb1 -24.326973 -0.000000 -32.862282
LeftUpLeg -6.970983 20.536758 -9.795835
LeftLeg 13.777570 -0.000000 -0.000000
LeftFoot -37.610372 42.636058 -26.773880
LeftToeBase 9.422297 -0.000000 -0.000000
RightUpLeg -39.888413 -31.520517 -5.519655
RightLeg 3.095169 -0.000000 -0.000000
RightFoot -15.325983 -25.882142 11.890636
RightToeBase -3.529273 -0.000000 0.000000
